<svg width="285" height="275" viewBox="0 0 285 275" fill="none" xmlns="http://www.w3.org/2000/svg">
<g filter="url(#filter0_d)">
<mask id="path-1-inside-1" fill="white">
<path fill-rule="evenodd" clip-rule="evenodd" d="M176.14 103.513L142.5 0L108.86 103.513H0L88.0698 167.487L54.4302 271L142.5 207.026L230.57 271L196.93 167.487L285 103.513H176.14ZM166.211 118.363L142.999 46.9389L119.788 118.363H44.6744L105.443 162.505L82.2312 233.929L142.999 189.787L203.768 233.929L180.556 162.505L241.324 118.363H166.211Z"/>
</mask>
<path fill-rule="evenodd" clip-rule="evenodd" d="M176.14 103.513L142.5 0L108.86 103.513H0L88.0698 167.487L54.4302 271L142.5 207.026L230.57 271L196.93 167.487L285 103.513H176.14ZM166.211 118.363L142.999 46.9389L119.788 118.363H44.6744L105.443 162.505L82.2312 233.929L142.999 189.787L203.768 233.929L180.556 162.505L241.324 118.363H166.211Z" fill="white"/>
<path d="M142.5 0L143.451 -0.30907L142.5 -3.23552L141.549 -0.30907L142.5 0ZM176.14 103.513L175.189 103.822L175.413 104.513H176.14V103.513ZM108.86 103.513V104.513H109.587L109.811 103.822L108.86 103.513ZM0 103.513V102.513H-3.07815L-0.587713 104.322L0 103.513ZM88.0698 167.487L89.0209 167.796L89.2455 167.105L88.6576 166.678L88.0698 167.487ZM54.4302 271L53.4791 270.691L52.528 273.618L55.0179 271.809L54.4302 271ZM142.5 207.026L143.088 206.217L142.5 205.79L141.912 206.217L142.5 207.026ZM230.57 271L229.982 271.809L232.472 273.618L231.521 270.691L230.57 271ZM196.93 167.487L196.342 166.678L195.755 167.105L195.979 167.796L196.93 167.487ZM285 103.513L285.588 104.322L288.078 102.513H285V103.513ZM142.999 46.9389L143.95 46.6299L142.999 43.7034L142.048 46.6299L142.999 46.9389ZM166.211 118.363L165.26 118.672L165.484 119.363H166.211V118.363ZM119.788 118.363V119.363H120.515L120.739 118.672L119.788 118.363ZM44.6744 118.363V117.363H41.5963L44.0867 119.172L44.6744 118.363ZM105.443 162.505L106.394 162.814L106.618 162.123L106.03 161.696L105.443 162.505ZM82.2312 233.929L81.2802 233.62L80.329 236.547L82.819 234.738L82.2312 233.929ZM142.999 189.787L143.587 188.978L142.999 188.551L142.412 188.978L142.999 189.787ZM203.768 233.929L203.18 234.738L205.67 236.547L204.719 233.62L203.768 233.929ZM180.556 162.505L179.969 161.696L179.381 162.123L179.605 162.814L180.556 162.505ZM241.324 118.363L241.912 119.172L244.403 117.363H241.324V118.363ZM141.549 0.30907L175.189 103.822L177.091 103.204L143.451 -0.30907L141.549 0.30907ZM109.811 103.822L143.451 0.30907L141.549 -0.30907L107.909 103.204L109.811 103.822ZM0 104.513H108.86V102.513H0V104.513ZM88.6576 166.678L0.587713 102.704L-0.587713 104.322L87.4821 168.296L88.6576 166.678ZM55.3812 271.309L89.0209 167.796L87.1188 167.178L53.4791 270.691L55.3812 271.309ZM141.912 206.217L53.8424 270.191L55.0179 271.809L143.088 207.835L141.912 206.217ZM231.158 270.191L143.088 206.217L141.912 207.835L229.982 271.809L231.158 270.191ZM195.979 167.796L229.619 271.309L231.521 270.691L197.881 167.178L195.979 167.796ZM284.412 102.704L196.342 166.678L197.518 168.296L285.588 104.322L284.412 102.704ZM176.14 104.513H285V102.513H176.14V104.513ZM142.048 47.248L165.26 118.672L167.162 118.054L143.95 46.6299L142.048 47.248ZM120.739 118.672L143.95 47.248L142.048 46.6299L118.837 118.054L120.739 118.672ZM44.6744 119.363H119.788V117.363H44.6744V119.363ZM106.03 161.696L45.2621 117.554L44.0867 119.172L104.855 163.314L106.03 161.696ZM83.1823 234.238L106.394 162.814L104.492 162.196L81.2802 233.62L83.1823 234.238ZM142.412 188.978L81.6435 233.12L82.819 234.738L143.587 190.596L142.412 188.978ZM204.355 233.12L143.587 188.978L142.412 190.596L203.18 234.738L204.355 233.12ZM179.605 162.814L202.817 234.238L204.719 233.62L181.507 162.196L179.605 162.814ZM240.737 117.554L179.969 161.696L181.144 163.314L241.912 119.172L240.737 117.554ZM166.211 119.363H241.324V117.363H166.211V119.363Z" fill="black" mask="url(#path-1-inside-1)"/>
</g>
<defs>
<filter id="filter0_d" x="0" y="0" width="289" height="275" filterUnits="userSpaceOnUse" color-interpolation-filters="sRGB">
<feFlood flood-opacity="0" result="BackgroundImageFix"/>
<feColorMatrix in="SourceAlpha" type="matrix" values="0 0 0 0 0 0 0 0 0 0 0 0 0 0 0 0 0 0 127 0"/>
<feOffset dx="4" dy="4"/>
<feColorMatrix type="matrix" values="0 0 0 0 0 0 0 0 0 0 0 0 0 0 0 0 0 0 0.25 0"/>
<feBlend mode="normal" in2="BackgroundImageFix" result="effect1_dropShadow"/>
<feBlend mode="normal" in="SourceGraphic" in2="effect1_dropShadow" result="shape"/>
</filter>
</defs>
</svg>
